<mxfile host="app.diagrams.net" modified="2022-05-18T18:41:41.757Z" agent="5.0 (Windows NT 10.0; Win64; x64) AppleWebKit/537.36 (KHTML, like Gecko) Chrome/101.0.4951.54 Safari/537.36" etag="w37mKxdYsj6n9GQFr7dR" version="18.0.7" type="github">
  <diagram id="C5RBs43oDa-KdzZeNtuy" name="Page-1">
    <mxGraphModel dx="835" dy="355" grid="1" gridSize="10" guides="1" tooltips="1" connect="1" arrows="1" fold="1" page="1" pageScale="1" pageWidth="827" pageHeight="1169" background="none" math="0" shadow="0">
      <root>
        <mxCell id="WIyWlLk6GJQsqaUBKTNV-0" />
        <mxCell id="WIyWlLk6GJQsqaUBKTNV-1" parent="WIyWlLk6GJQsqaUBKTNV-0" />
        <mxCell id="DoNyQpDXPHx49vUUo47L-1" value="Cliente" style="swimlane;" vertex="1" parent="WIyWlLk6GJQsqaUBKTNV-1">
          <mxGeometry x="50" y="80" width="130" height="200" as="geometry" />
        </mxCell>
        <mxCell id="DoNyQpDXPHx49vUUo47L-2" value="+Id: srting" style="rounded=0;whiteSpace=wrap;html=1;" vertex="1" parent="DoNyQpDXPHx49vUUo47L-1">
          <mxGeometry y="20" width="130" height="30" as="geometry" />
        </mxCell>
        <mxCell id="DoNyQpDXPHx49vUUo47L-3" value="+Nombre: srting" style="rounded=0;whiteSpace=wrap;html=1;" vertex="1" parent="DoNyQpDXPHx49vUUo47L-1">
          <mxGeometry y="50" width="130" height="30" as="geometry" />
        </mxCell>
        <mxCell id="DoNyQpDXPHx49vUUo47L-4" value="+Apellido: srting" style="rounded=0;whiteSpace=wrap;html=1;" vertex="1" parent="DoNyQpDXPHx49vUUo47L-1">
          <mxGeometry y="80" width="130" height="30" as="geometry" />
        </mxCell>
        <mxCell id="DoNyQpDXPHx49vUUo47L-5" value="+DNI: int" style="rounded=0;whiteSpace=wrap;html=1;" vertex="1" parent="DoNyQpDXPHx49vUUo47L-1">
          <mxGeometry y="110" width="130" height="30" as="geometry" />
        </mxCell>
        <mxCell id="DoNyQpDXPHx49vUUo47L-20" value="+DNI: int" style="rounded=0;whiteSpace=wrap;html=1;" vertex="1" parent="DoNyQpDXPHx49vUUo47L-1">
          <mxGeometry y="110" width="130" height="30" as="geometry" />
        </mxCell>
        <mxCell id="DoNyQpDXPHx49vUUo47L-21" value="+DNI: int" style="rounded=0;whiteSpace=wrap;html=1;" vertex="1" parent="DoNyQpDXPHx49vUUo47L-1">
          <mxGeometry y="110" width="130" height="30" as="geometry" />
        </mxCell>
        <mxCell id="DoNyQpDXPHx49vUUo47L-22" value="+Nombre: srting" style="rounded=0;whiteSpace=wrap;html=1;" vertex="1" parent="DoNyQpDXPHx49vUUo47L-1">
          <mxGeometry y="50" width="130" height="30" as="geometry" />
        </mxCell>
        <mxCell id="DoNyQpDXPHx49vUUo47L-7" value="Producto" style="swimlane;" vertex="1" parent="WIyWlLk6GJQsqaUBKTNV-1">
          <mxGeometry x="610" y="80" width="140" height="200" as="geometry" />
        </mxCell>
        <mxCell id="DoNyQpDXPHx49vUUo47L-8" value="+Id: srting" style="rounded=0;whiteSpace=wrap;html=1;" vertex="1" parent="DoNyQpDXPHx49vUUo47L-7">
          <mxGeometry y="20" width="140" height="30" as="geometry" />
        </mxCell>
        <mxCell id="DoNyQpDXPHx49vUUo47L-9" value="+Nombre: srting" style="rounded=0;whiteSpace=wrap;html=1;" vertex="1" parent="DoNyQpDXPHx49vUUo47L-7">
          <mxGeometry y="50" width="140" height="30" as="geometry" />
        </mxCell>
        <mxCell id="DoNyQpDXPHx49vUUo47L-10" value="+Descripción: srting" style="rounded=0;whiteSpace=wrap;html=1;" vertex="1" parent="DoNyQpDXPHx49vUUo47L-7">
          <mxGeometry y="80" width="140" height="30" as="geometry" />
        </mxCell>
        <mxCell id="DoNyQpDXPHx49vUUo47L-11" value="+Categoría: string" style="rounded=0;whiteSpace=wrap;html=1;" vertex="1" parent="DoNyQpDXPHx49vUUo47L-7">
          <mxGeometry y="110" width="140" height="30" as="geometry" />
        </mxCell>
        <mxCell id="DoNyQpDXPHx49vUUo47L-12" value="+Precio: float" style="rounded=0;whiteSpace=wrap;html=1;" vertex="1" parent="DoNyQpDXPHx49vUUo47L-7">
          <mxGeometry y="140" width="140" height="30" as="geometry" />
        </mxCell>
        <mxCell id="DoNyQpDXPHx49vUUo47L-13" value="Factura" style="swimlane;" vertex="1" parent="WIyWlLk6GJQsqaUBKTNV-1">
          <mxGeometry x="340" y="80" width="100" height="200" as="geometry" />
        </mxCell>
        <mxCell id="DoNyQpDXPHx49vUUo47L-14" value="+Número: string" style="rounded=0;whiteSpace=wrap;html=1;" vertex="1" parent="DoNyQpDXPHx49vUUo47L-13">
          <mxGeometry y="20" width="100" height="30" as="geometry" />
        </mxCell>
        <mxCell id="DoNyQpDXPHx49vUUo47L-15" value="+Fecha: srting" style="rounded=0;whiteSpace=wrap;html=1;" vertex="1" parent="DoNyQpDXPHx49vUUo47L-13">
          <mxGeometry y="50" width="100" height="30" as="geometry" />
        </mxCell>
        <mxCell id="DoNyQpDXPHx49vUUo47L-18" value="+Precio: float" style="rounded=0;whiteSpace=wrap;html=1;" vertex="1" parent="DoNyQpDXPHx49vUUo47L-13">
          <mxGeometry y="80" width="100" height="30" as="geometry" />
        </mxCell>
        <mxCell id="DoNyQpDXPHx49vUUo47L-26" value="" style="endArrow=classic;html=1;rounded=0;exitX=1;exitY=1;exitDx=0;exitDy=0;entryX=0;entryY=0;entryDx=0;entryDy=0;" edge="1" parent="WIyWlLk6GJQsqaUBKTNV-1" source="DoNyQpDXPHx49vUUo47L-22" target="DoNyQpDXPHx49vUUo47L-18">
          <mxGeometry width="50" height="50" relative="1" as="geometry">
            <mxPoint x="410" y="420" as="sourcePoint" />
            <mxPoint x="460" y="370" as="targetPoint" />
            <Array as="points" />
          </mxGeometry>
        </mxCell>
        <mxCell id="DoNyQpDXPHx49vUUo47L-27" value="1" style="text;html=1;align=center;verticalAlign=middle;resizable=0;points=[];autosize=1;strokeColor=none;fillColor=none;" vertex="1" parent="WIyWlLk6GJQsqaUBKTNV-1">
          <mxGeometry x="180" y="130" width="20" height="20" as="geometry" />
        </mxCell>
        <mxCell id="DoNyQpDXPHx49vUUo47L-29" value="*" style="text;html=1;align=center;verticalAlign=middle;resizable=0;points=[];autosize=1;strokeColor=none;fillColor=none;" vertex="1" parent="WIyWlLk6GJQsqaUBKTNV-1">
          <mxGeometry x="320" y="130" width="20" height="20" as="geometry" />
        </mxCell>
        <mxCell id="DoNyQpDXPHx49vUUo47L-30" value="" style="endArrow=classic;html=1;rounded=0;entryX=0;entryY=0;entryDx=0;entryDy=0;exitX=1;exitY=1;exitDx=0;exitDy=0;" edge="1" parent="WIyWlLk6GJQsqaUBKTNV-1" source="DoNyQpDXPHx49vUUo47L-15" target="DoNyQpDXPHx49vUUo47L-10">
          <mxGeometry width="50" height="50" relative="1" as="geometry">
            <mxPoint x="460" y="160" as="sourcePoint" />
            <mxPoint x="460" y="370" as="targetPoint" />
            <Array as="points">
              <mxPoint x="550" y="160" />
            </Array>
          </mxGeometry>
        </mxCell>
        <mxCell id="DoNyQpDXPHx49vUUo47L-31" value="1" style="text;html=1;align=center;verticalAlign=middle;resizable=0;points=[];autosize=1;strokeColor=none;fillColor=none;" vertex="1" parent="WIyWlLk6GJQsqaUBKTNV-1">
          <mxGeometry x="450" y="130" width="20" height="20" as="geometry" />
        </mxCell>
        <mxCell id="DoNyQpDXPHx49vUUo47L-32" value="*" style="text;html=1;align=center;verticalAlign=middle;resizable=0;points=[];autosize=1;strokeColor=none;fillColor=none;" vertex="1" parent="WIyWlLk6GJQsqaUBKTNV-1">
          <mxGeometry x="580" y="130" width="20" height="20" as="geometry" />
        </mxCell>
        <mxCell id="DoNyQpDXPHx49vUUo47L-35" value="ÍtemFactura" style="swimlane;" vertex="1" parent="WIyWlLk6GJQsqaUBKTNV-1">
          <mxGeometry x="460" y="350" width="140" height="200" as="geometry" />
        </mxCell>
        <mxCell id="DoNyQpDXPHx49vUUo47L-36" value="+NúmeroFactura: srting" style="rounded=0;whiteSpace=wrap;html=1;" vertex="1" parent="DoNyQpDXPHx49vUUo47L-35">
          <mxGeometry y="20" width="140" height="30" as="geometry" />
        </mxCell>
        <mxCell id="DoNyQpDXPHx49vUUo47L-37" value="+IdProducto: srting" style="rounded=0;whiteSpace=wrap;html=1;" vertex="1" parent="DoNyQpDXPHx49vUUo47L-35">
          <mxGeometry y="50" width="140" height="30" as="geometry" />
        </mxCell>
        <mxCell id="DoNyQpDXPHx49vUUo47L-38" value="+Cantidad: float" style="rounded=0;whiteSpace=wrap;html=1;" vertex="1" parent="DoNyQpDXPHx49vUUo47L-35">
          <mxGeometry y="80" width="140" height="30" as="geometry" />
        </mxCell>
        <mxCell id="DoNyQpDXPHx49vUUo47L-39" value="+PrecioUnidad: float" style="rounded=0;whiteSpace=wrap;html=1;" vertex="1" parent="DoNyQpDXPHx49vUUo47L-35">
          <mxGeometry y="110" width="140" height="30" as="geometry" />
        </mxCell>
        <mxCell id="DoNyQpDXPHx49vUUo47L-40" value="+PrecioTotal: float" style="rounded=0;whiteSpace=wrap;html=1;" vertex="1" parent="DoNyQpDXPHx49vUUo47L-35">
          <mxGeometry y="140" width="140" height="30" as="geometry" />
        </mxCell>
        <mxCell id="DoNyQpDXPHx49vUUo47L-41" value="" style="endArrow=classic;html=1;rounded=0;exitX=0.5;exitY=1;exitDx=0;exitDy=0;entryX=0;entryY=1;entryDx=0;entryDy=0;" edge="1" parent="WIyWlLk6GJQsqaUBKTNV-1" source="DoNyQpDXPHx49vUUo47L-13" target="DoNyQpDXPHx49vUUo47L-37">
          <mxGeometry width="50" height="50" relative="1" as="geometry">
            <mxPoint x="410" y="270" as="sourcePoint" />
            <mxPoint x="460" y="220" as="targetPoint" />
            <Array as="points">
              <mxPoint x="390" y="430" />
            </Array>
          </mxGeometry>
        </mxCell>
        <mxCell id="DoNyQpDXPHx49vUUo47L-42" value="1" style="text;html=1;align=center;verticalAlign=middle;resizable=0;points=[];autosize=1;strokeColor=none;fillColor=none;" vertex="1" parent="WIyWlLk6GJQsqaUBKTNV-1">
          <mxGeometry x="400" y="280" width="20" height="20" as="geometry" />
        </mxCell>
        <mxCell id="DoNyQpDXPHx49vUUo47L-43" value="*" style="text;html=1;align=center;verticalAlign=middle;resizable=0;points=[];autosize=1;strokeColor=none;fillColor=none;" vertex="1" parent="WIyWlLk6GJQsqaUBKTNV-1">
          <mxGeometry x="430" y="400" width="20" height="20" as="geometry" />
        </mxCell>
        <mxCell id="DoNyQpDXPHx49vUUo47L-44" value="" style="endArrow=none;html=1;rounded=0;" edge="1" parent="WIyWlLk6GJQsqaUBKTNV-1">
          <mxGeometry width="50" height="50" relative="1" as="geometry">
            <mxPoint x="600" y="430" as="sourcePoint" />
            <mxPoint x="690" y="280" as="targetPoint" />
            <Array as="points">
              <mxPoint x="690" y="430" />
            </Array>
          </mxGeometry>
        </mxCell>
        <mxCell id="DoNyQpDXPHx49vUUo47L-45" value="&lt;h1&gt;Supermercado&lt;/h1&gt;" style="rounded=1;whiteSpace=wrap;html=1;" vertex="1" parent="WIyWlLk6GJQsqaUBKTNV-1">
          <mxGeometry x="170" y="10" width="490" height="50" as="geometry" />
        </mxCell>
      </root>
    </mxGraphModel>
  </diagram>
</mxfile>
